<svg version="1.1" id="Layer_1" xmlns="http://www.w3.org/2000/svg" xmlns:xlink="http://www.w3.org/1999/xlink" x="0px" y="0px"
	 width="100%" viewBox="0 0 341 391" enable-background="new 0 0 341 391" xml:space="preserve">
<path fill="#000000" opacity="1.000000" stroke="none" 
	d="
M222.000000,392.000000 
	C148.025101,392.000000 74.550194,392.000000 1.037648,392.000000 
	C1.037648,261.736267 1.037648,131.472549 1.037648,1.104406 
	C114.558159,1.104406 228.116455,1.104406 341.837372,1.104406 
	C341.837372,131.333160 341.837372,261.666565 341.837372,392.000000 
	C302.139313,392.000000 262.319641,392.000000 222.000000,392.000000 
M133.348557,91.154335 
	C132.860748,92.088867 132.372925,93.023392 131.338837,94.188766 
	C131.210678,94.755547 131.082520,95.322327 130.342361,96.159790 
	C129.839630,97.106331 129.336899,98.052864 128.348557,99.178619 
	C128.269928,99.332214 128.191315,99.485802 127.634781,99.939880 
	C127.384888,100.612556 127.134995,101.285233 126.338837,102.188759 
	C126.210686,102.755531 126.082527,103.322311 125.348572,104.154320 
	C124.860756,105.088844 124.372932,106.023376 123.338844,107.188751 
	C123.210686,107.755531 123.082535,108.322304 122.348564,109.154320 
	C121.860748,110.088844 121.372925,111.023369 120.338852,112.188751 
	C120.210693,112.755531 120.082535,113.322311 119.348572,114.154320 
	C118.860756,115.088852 118.372932,116.023376 117.338844,117.188751 
	C117.210686,117.755531 117.082527,118.322304 116.348572,119.154320 
	C115.860748,120.088844 115.372925,121.023369 114.338844,122.188751 
	C114.210693,122.755531 114.082535,123.322304 113.342377,124.159775 
	C112.839638,125.106316 112.336899,126.052856 111.348549,127.178619 
	C111.269920,127.332207 111.191299,127.485802 110.634781,127.939888 
	C110.384880,128.612564 110.134987,129.285233 109.338837,130.188751 
	C109.210686,130.755524 109.082535,131.322311 108.348564,132.154312 
	C107.860741,133.088852 107.372917,134.023376 106.338829,135.188751 
	C106.210678,135.755524 106.082527,136.322311 105.348572,137.154312 
	C104.860741,138.088852 104.372917,139.023376 103.338821,140.188751 
	C103.210670,140.755524 103.082520,141.322311 102.348572,142.154312 
	C101.860748,143.088852 101.372917,144.023376 100.338829,145.188751 
	C100.210678,145.755524 100.082527,146.322311 99.348572,147.154312 
	C98.860748,148.088852 98.372925,149.023376 97.338837,150.188751 
	C97.210686,150.755524 97.082535,151.322311 96.348579,152.154312 
	C95.860748,153.088852 95.372925,154.023392 94.338829,155.188751 
	C94.210678,155.755524 94.082527,156.322311 93.342384,157.159775 
	C92.839684,158.106293 92.336983,159.052795 91.348602,160.178589 
	C91.269966,160.332199 91.191322,160.485794 90.634773,160.939896 
	C90.384880,161.612564 90.134987,162.285248 89.338829,163.188751 
	C89.210678,163.755524 89.082527,164.322311 88.348557,165.154312 
	C87.860733,166.088837 87.372910,167.023376 86.338829,168.188751 
	C86.210678,168.755524 86.082527,169.322311 85.348564,170.154312 
	C84.860733,171.088837 84.372910,172.023376 83.338829,173.188751 
	C83.210678,173.755524 83.082527,174.322311 82.348564,175.154312 
	C81.860741,176.088837 81.372910,177.023376 80.338829,178.188751 
	C80.210678,178.755524 80.082527,179.322311 79.348564,180.154312 
	C78.860741,181.088852 78.372917,182.023376 77.338829,183.188751 
	C77.210678,183.755524 77.082527,184.322311 76.342377,185.159775 
	C75.839676,186.106277 75.336983,187.052795 74.348602,188.178589 
	C74.269966,188.332199 74.191322,188.485794 73.634773,188.939896 
	C73.384880,189.612564 73.134987,190.285248 72.338829,191.188751 
	C72.210678,191.755524 72.082527,192.322311 71.348579,193.154312 
	C70.860748,194.088852 70.372925,195.023392 69.338829,196.188751 
	C69.210678,196.755524 69.082527,197.322311 68.348579,198.154312 
	C67.860756,199.088852 67.372925,200.023392 66.338829,201.188751 
	C66.210678,201.755524 66.082527,202.322311 65.348572,203.154312 
	C64.860741,204.088852 64.372917,205.023376 63.338833,206.188766 
	C63.210678,206.755539 63.082523,207.322311 62.348572,208.154312 
	C61.860744,209.088852 61.372921,210.023376 60.338837,211.188766 
	C60.210682,211.755539 60.082527,212.322311 59.342384,213.159775 
	C58.839687,214.106293 58.336987,215.052795 57.348614,216.178574 
	C57.269970,216.332184 57.191326,216.485779 56.634769,216.939896 
	C56.384876,217.612564 56.134979,218.285233 55.338840,219.188766 
	C55.210686,219.755539 55.082531,220.322311 54.348568,221.154312 
	C53.860741,222.088852 53.372913,223.023376 52.338837,224.188766 
	C52.210682,224.755539 52.082527,225.322311 51.348568,226.154312 
	C50.860744,227.088852 50.372917,228.023376 49.338840,229.188766 
	C49.210686,229.755539 49.082531,230.322311 48.348572,231.154312 
	C47.860744,232.088852 47.372921,233.023376 46.338837,234.188766 
	C46.210682,234.755539 46.082531,235.322311 45.348576,236.154312 
	C44.860748,237.088852 44.372921,238.023376 43.338840,239.188766 
	C43.210686,239.755539 43.082535,240.322311 42.348576,241.154312 
	C41.860752,242.088852 41.372925,243.023392 40.338837,244.188766 
	C40.210682,244.755539 40.082531,245.322311 39.348568,246.154312 
	C38.860741,247.088837 38.372913,248.023376 37.338833,249.188766 
	C37.210678,249.755539 37.082527,250.322311 36.348568,251.154312 
	C35.860744,252.088852 35.372917,253.023376 34.288067,254.253326 
	C33.843502,255.465256 33.398933,256.677185 32.348557,258.154327 
	C31.860737,259.088867 31.372915,260.023376 30.338831,261.188751 
	C30.210674,261.755524 30.082518,262.322327 29.348551,263.154327 
	C28.860731,264.088867 28.372911,265.023376 27.317953,266.216644 
	C27.267523,266.814972 27.217094,267.413300 27.104429,268.523163 
	C27.395979,268.626556 27.687527,268.729950 28.909487,268.975647 
	C42.395523,268.983765 55.883549,268.867310 69.366287,269.082458 
	C73.006195,269.140503 75.131020,268.244934 77.131950,264.907196 
	C91.920074,240.239166 107.187134,215.857574 121.912743,191.152924 
	C138.878860,162.689468 155.442688,133.986221 172.185135,105.389420 
	C174.147888,102.036949 175.864365,101.989220 178.087204,105.357224 
	C181.736191,110.886147 185.290863,116.477318 188.998337,122.746056 
	C189.376740,123.129936 189.755142,123.513824 190.133545,123.897713 
	C190.366806,123.265022 190.600067,122.632332 190.975647,121.071930 
	C190.983734,102.763290 190.998749,84.454636 190.985367,66.146011 
	C190.984406,64.840019 191.199097,63.283348 190.597626,62.266846 
	C184.190033,51.437817 177.637680,40.694447 170.618073,29.089319 
	C169.507889,31.506573 168.731125,33.197838 167.342377,35.159782 
	C166.839661,36.106316 166.336929,37.052849 165.348572,38.178604 
	C165.269928,38.332203 165.191299,38.485798 164.634796,38.939892 
	C164.384903,39.612564 164.135010,40.285236 163.338837,41.188759 
	C163.210678,41.755539 163.082520,42.322319 162.348557,43.154331 
	C161.860733,44.088860 161.372925,45.023388 160.338837,46.188774 
	C160.210678,46.755550 160.082520,47.322323 159.348572,48.154335 
	C158.860748,49.088863 158.372925,50.023392 157.338837,51.188774 
	C157.210678,51.755547 157.082520,52.322323 156.348557,53.154331 
	C155.860733,54.088860 155.372925,55.023388 154.338837,56.188774 
	C154.210678,56.755550 154.082520,57.322323 153.348572,58.154335 
	C152.860748,59.088863 152.372925,60.023392 151.338837,61.188774 
	C151.210678,61.755547 151.082520,62.322323 150.348557,63.154331 
	C149.860748,64.088860 149.372925,65.023392 148.338821,66.188766 
	C148.210663,66.755547 148.082504,67.322327 147.342361,68.159790 
	C146.839630,69.106331 146.336899,70.052864 145.348557,71.178619 
	C145.269928,71.332214 145.191315,71.485802 144.634796,71.939880 
	C144.384903,72.612556 144.135010,73.285233 143.338837,74.188766 
	C143.210678,74.755547 143.082520,75.322327 142.348557,76.154335 
	C141.860748,77.088867 141.372925,78.023392 140.338837,79.188766 
	C140.210678,79.755547 140.082520,80.322327 139.348557,81.154335 
	C138.860733,82.088860 138.372910,83.023384 137.338837,84.188766 
	C137.210678,84.755547 137.082520,85.322327 136.348557,86.154335 
	C135.860733,87.088860 135.372925,88.023392 134.338837,89.188766 
	C134.210678,89.755547 134.082520,90.322327 133.348557,91.154335 
M218.769043,110.310127 
	C218.107590,109.571335 217.446136,108.832550 216.784683,108.093750 
	C216.134659,109.062187 215.484634,110.030624 214.264847,111.273186 
	C213.906921,112.213875 213.548996,113.154564 212.837067,114.683540 
	C211.169540,117.122078 209.502014,119.560608 207.352264,122.166237 
	C207.298553,122.475838 207.244843,122.785446 206.845169,123.674438 
	C206.174728,124.782867 205.504288,125.891289 204.210297,127.350555 
	C203.102615,129.885712 201.994919,132.420868 200.262680,135.232849 
	C199.119812,137.155060 197.976944,139.077271 196.242081,141.306412 
	C195.790466,142.522949 195.338852,143.739487 194.285049,145.211304 
	C193.801407,146.140686 193.317764,147.070053 192.248230,148.297485 
	C191.816940,149.494690 191.385651,150.691895 190.348557,152.154327 
	C189.860748,153.088867 189.372925,154.023392 188.288071,155.253326 
	C187.843506,156.465256 187.398941,157.677170 186.348557,159.154327 
	C185.860733,160.088852 185.372910,161.023392 184.288071,162.253326 
	C183.843506,163.465256 183.398941,164.677170 182.348541,166.154327 
	C181.860733,167.088852 181.372910,168.023376 180.288071,169.253326 
	C179.843506,170.465240 179.398941,171.677170 178.348557,173.154327 
	C177.860748,174.088852 177.372925,175.023392 176.288071,176.253326 
	C175.843506,177.465256 175.398941,178.677170 174.348557,180.154327 
	C173.860733,181.088852 173.372910,182.023376 172.288071,183.253326 
	C171.843506,184.465256 171.398941,185.677170 170.348557,187.154327 
	C169.860733,188.088852 169.372925,189.023392 168.288055,190.253326 
	C167.843491,191.465240 167.398926,192.677170 166.348557,194.154327 
	C165.860733,195.088852 165.372925,196.023392 164.288071,197.253326 
	C163.843506,198.465256 163.398941,199.677170 162.348557,201.154327 
	C161.860748,202.088867 161.372925,203.023392 160.288071,204.253326 
	C159.843506,205.465256 159.398941,206.677170 158.348557,208.154327 
	C157.860733,209.088852 157.372910,210.023392 156.272049,211.274582 
	C155.499496,213.146088 154.726929,215.017593 153.348557,217.154327 
	C152.860748,218.088867 152.372925,219.023392 151.288071,220.253326 
	C150.843506,221.465256 150.398941,222.677170 149.348557,224.154327 
	C148.860733,225.088852 148.372910,226.023392 147.272064,227.274582 
	C146.499496,229.146088 145.726944,231.017593 144.348557,233.154327 
	C143.860748,234.088867 143.372925,235.023392 142.288071,236.253326 
	C141.843506,237.465256 141.398941,238.677170 140.348572,240.154327 
	C139.860748,241.088867 139.372925,242.023392 138.288071,243.253326 
	C137.843506,244.465256 137.398941,245.677170 136.342377,247.159775 
	C135.839676,248.106293 135.336975,249.052795 134.348602,250.178574 
	C134.269958,250.332184 134.191315,250.485779 133.634766,250.939896 
	C133.384872,251.612564 133.134995,252.285248 132.338837,253.188766 
	C132.210678,253.755539 132.082535,254.322327 131.348557,255.154327 
	C130.860733,256.088867 130.372925,257.023376 129.338837,258.188751 
	C129.210678,258.755524 129.082520,259.322327 128.348557,260.154327 
	C127.860733,261.088867 127.372910,262.023376 126.338829,263.188751 
	C126.210670,263.755524 126.082520,264.322327 125.342384,265.159760 
	C124.839691,266.106262 124.336998,267.052795 123.348618,268.178558 
	C123.269966,268.332184 123.191322,268.485809 122.634766,268.939880 
	C122.384872,269.612549 122.134987,270.285248 121.338837,271.188751 
	C121.210678,271.755524 121.082527,272.322327 120.342392,273.159760 
	C119.839699,274.106262 119.337006,275.052795 118.206299,276.374664 
	C118.193092,276.854126 118.179886,277.333588 117.990845,278.291962 
	C117.716118,278.861542 117.441391,279.431152 116.870872,280.627960 
	C116.232033,282.048340 115.593201,283.468719 114.348549,285.154327 
	C113.860725,286.088867 113.372910,287.023376 112.288071,288.253326 
	C111.843506,289.465240 111.398941,290.677185 110.348549,292.154327 
	C109.860733,293.088867 109.372910,294.023376 108.288055,295.253326 
	C107.843491,296.465240 107.398926,297.677185 106.348557,299.154327 
	C105.860733,300.088867 105.372910,301.023376 104.288063,302.253326 
	C103.843498,303.465240 103.398933,304.677185 102.348557,306.154327 
	C101.860733,307.088867 101.372910,308.023376 100.288071,309.253326 
	C99.843506,310.465240 99.398941,311.677185 98.348557,313.154327 
	C97.860733,314.088867 97.372917,315.023376 96.288071,316.253326 
	C95.843506,317.465240 95.398941,318.677185 94.348572,320.154327 
	C93.860748,321.088867 93.372932,322.023407 92.288063,323.253326 
	C91.843498,324.465240 91.398933,325.677185 90.348557,327.154327 
	C89.860741,328.088867 89.372917,329.023376 88.288063,330.253326 
	C87.843498,331.465240 87.398933,332.677185 86.348549,334.154327 
	C85.860725,335.088867 85.372910,336.023376 84.288055,337.253326 
	C83.843491,338.465240 83.398926,339.677185 82.348549,341.154327 
	C81.860725,342.088867 81.372910,343.023376 80.288063,344.253326 
	C79.843498,345.465240 79.398933,346.677185 78.348564,348.154327 
	C77.860741,349.088867 77.372925,350.023376 76.288063,351.253326 
	C75.843498,352.465240 75.398933,353.677185 74.348564,355.154327 
	C73.860748,356.088867 73.372925,357.023407 72.288071,358.253326 
	C71.843506,359.465240 71.398941,360.677185 70.348557,362.154327 
	C69.860733,363.088867 69.372910,364.023376 68.339355,365.188110 
	C68.211945,365.754089 68.084534,366.320068 67.464066,367.075378 
	C67.642563,367.328033 67.821060,367.580688 68.927368,367.975647 
	C84.912964,367.983734 100.898926,368.039703 116.883575,367.920593 
	C118.367989,367.909546 120.571915,367.214142 121.214943,366.117249 
	C130.916000,349.569153 140.342957,332.860718 149.975800,316.272095 
	C158.378067,301.802704 167.083298,287.507812 175.364166,272.970367 
	C177.240738,269.675964 179.470367,268.937469 182.908829,268.944702 
	C223.705536,269.030548 264.502502,269.000000 305.299377,269.000000 
	C307.103729,269.000000 308.908112,269.000000 311.497284,269.000000 
	C310.688202,266.957031 310.283539,265.407593 309.508942,264.072906 
	C306.573212,259.014404 303.486847,254.043701 300.512604,249.007202 
	C290.927917,232.776993 281.359894,216.536926 271.800690,200.291672 
	C260.429565,180.967178 249.113785,161.610001 237.696396,142.312897 
	C231.491867,131.826294 225.126282,121.434998 218.769043,110.310127 
z"/>
<path fill="#14F195" opacity="1.000000" stroke="none" 
	d="
M136.954376,246.889099 
	C137.398941,245.677170 137.843506,244.465256 138.899109,243.086105 
	C139.991547,241.908951 140.472961,240.899033 140.954376,239.889099 
	C141.398941,238.677170 141.843506,237.465256 142.899109,236.086105 
	C143.991562,234.908966 144.472977,233.899033 144.954376,232.889099 
	C145.726944,231.017593 146.499496,229.146088 147.891098,227.096741 
	C148.991547,225.908966 149.472961,224.899033 149.954376,223.889099 
	C150.398941,222.677170 150.843506,221.465256 151.899109,220.086105 
	C152.991547,218.908951 153.472961,217.899033 153.954376,216.889099 
	C154.726929,215.017593 155.499496,213.146088 156.891098,211.096741 
	C157.991562,209.908966 158.472977,208.899033 158.954376,207.889099 
	C159.398941,206.677170 159.843506,205.465256 160.899109,204.086105 
	C161.991547,202.908951 162.472961,201.899033 162.954376,200.889099 
	C163.398941,199.677170 163.843506,198.465256 164.899109,197.086105 
	C165.991547,195.908951 166.472961,194.899033 166.954376,193.889099 
	C167.398926,192.677170 167.843491,191.465240 168.899078,190.086105 
	C169.991531,188.908951 170.472946,187.899017 170.954376,186.889099 
	C171.398941,185.677170 171.843506,184.465256 172.899109,183.086105 
	C173.991562,181.908966 174.472977,180.899033 174.954376,179.889099 
	C175.398941,178.677170 175.843506,177.465256 176.899094,176.086105 
	C177.991531,174.908951 178.472946,173.899017 178.954376,172.889099 
	C179.398941,171.677170 179.843506,170.465240 180.899109,169.086105 
	C181.991547,167.908951 182.472961,166.899033 182.954376,165.889099 
	C183.398941,164.677170 183.843506,163.465256 184.899109,162.086105 
	C185.991547,160.908966 186.472961,159.899033 186.954376,158.889099 
	C187.398941,157.677170 187.843506,156.465256 188.899109,155.086105 
	C189.991547,153.908951 190.472961,152.899033 190.954376,151.889099 
	C191.385651,150.691895 191.816940,149.494690 192.871307,148.117462 
	C193.958679,146.943619 194.422958,145.949829 194.887238,144.956024 
	C195.338852,143.739487 195.790466,142.522949 196.892273,141.114182 
	C200.083633,139.732925 202.252747,138.335297 200.887238,134.956024 
	C201.994919,132.420868 203.102615,129.885712 204.915894,127.109566 
	C206.144714,125.610733 206.667923,124.352898 207.191132,123.095055 
	C207.244843,122.785446 207.298553,122.475838 207.982056,122.068100 
	C213.022202,121.022118 213.674515,117.888916 213.191071,114.095253 
	C213.548996,113.154564 213.906921,112.213875 214.949646,111.136330 
	C216.700760,110.999886 217.767044,111.000298 218.833344,111.000717 
	C225.126282,121.434998 231.491867,131.826294 237.696396,142.312897 
	C249.113785,161.610001 260.429565,180.967178 271.800690,200.291672 
	C281.359894,216.536926 290.927917,232.776993 300.512604,249.007202 
	C303.486847,254.043701 306.573212,259.014404 309.508942,264.072906 
	C310.283539,265.407593 310.688202,266.957031 311.497284,269.000000 
	C308.908112,269.000000 307.103729,269.000000 305.299377,269.000000 
	C264.502502,269.000000 223.705536,269.030548 182.908829,268.944702 
	C179.470367,268.937469 177.240738,269.675964 175.364166,272.970367 
	C167.083298,287.507812 158.378067,301.802704 149.975800,316.272095 
	C140.342957,332.860718 130.916000,349.569153 121.214943,366.117249 
	C120.571915,367.214142 118.367989,367.909546 116.883575,367.920593 
	C100.898926,368.039703 84.912964,367.983734 68.455704,367.667542 
	C67.984047,367.359436 67.957130,366.886047 67.957123,366.886047 
	C68.084534,366.320068 68.211945,365.754089 68.924744,365.053528 
	C69.991539,363.908997 70.472954,362.899048 70.954369,361.889099 
	C71.398941,360.677185 71.843506,359.465240 72.899109,358.086121 
	C73.991547,356.908997 74.472954,355.899048 74.954369,354.889099 
	C75.398933,353.677185 75.843498,352.465240 76.899101,351.086121 
	C77.991547,349.908997 78.472961,348.899048 78.954369,347.889099 
	C79.398933,346.677185 79.843498,345.465240 80.899109,344.086121 
	C81.991554,342.908997 82.472961,341.899048 82.954369,340.889099 
	C83.398926,339.677185 83.843491,338.465240 84.899101,337.086121 
	C85.991554,335.908997 86.472969,334.899048 86.954376,333.889099 
	C87.398933,332.677185 87.843498,331.465240 88.899109,330.086121 
	C89.991562,328.908997 90.472969,327.899048 90.954376,326.889099 
	C91.398933,325.677185 91.843498,324.465240 92.899101,323.086121 
	C93.991554,321.908997 94.472961,320.899048 94.954376,319.889099 
	C95.398941,318.677185 95.843506,317.465240 96.899101,316.086121 
	C97.991539,314.908997 98.472954,313.899048 98.954369,312.889099 
	C99.398941,311.677185 99.843506,310.465240 100.899101,309.086121 
	C101.991547,307.908997 102.472954,306.899048 102.954361,305.889099 
	C103.398933,304.677185 103.843498,303.465240 104.899101,302.086121 
	C105.991547,300.908997 106.472954,299.899048 106.954361,298.889099 
	C107.398926,297.677185 107.843491,296.465240 108.899094,295.086121 
	C109.991554,293.908997 110.472961,292.899048 110.954376,291.889099 
	C111.398941,290.677185 111.843506,289.465240 112.899109,288.086121 
	C113.991554,286.908997 114.472961,285.899048 114.954376,284.889099 
	C115.593201,283.468719 116.232033,282.048340 117.304718,280.276489 
	C117.881271,279.221039 118.023979,278.517029 118.166679,277.813049 
	C118.179886,277.333588 118.193092,276.854126 118.836853,276.161377 
	C119.963066,274.928406 120.458717,273.908752 120.954376,272.889099 
	C121.082527,272.322327 121.210678,271.755524 121.921692,271.045837 
	C122.707268,270.148407 122.909973,269.393890 123.112679,268.639404 
	C123.191322,268.485809 123.269966,268.332184 123.908020,268.063293 
	C124.963074,266.928406 125.458725,265.908752 125.954376,264.889099 
	C126.082520,264.322327 126.210670,263.755524 126.924484,263.053833 
	C127.991554,261.908997 128.472961,260.899048 128.954361,259.889099 
	C129.082520,259.322327 129.210678,258.755524 129.924484,258.053833 
	C130.991547,256.908966 131.472961,255.899033 131.954376,254.889099 
	C132.082535,254.322327 132.210678,253.755539 132.921692,253.045837 
	C133.707275,252.148422 133.909988,251.393906 134.112701,250.639389 
	C134.191315,250.485779 134.269958,250.332184 134.908005,250.063324 
	C135.963074,248.928406 136.458725,247.908752 136.954376,246.889099 
M249.851318,225.411102 
	C249.653183,225.126282 249.383560,224.951889 248.979340,224.174118 
	C247.785416,222.065277 246.607864,219.946991 245.394730,217.849258 
	C240.213318,208.889572 235.021423,199.935974 229.857544,190.492691 
	C229.676178,190.139648 229.399002,190.030960 228.443802,189.846405 
	C228.240326,189.224319 228.036835,188.602234 227.857544,187.492691 
	C227.676178,187.139648 227.399002,187.030960 226.347778,187.043243 
	C225.891907,187.084381 225.436020,187.125504 224.492691,187.142456 
	C224.139648,187.323822 224.030960,187.600998 223.855835,188.615158 
	C217.251373,200.705276 210.646896,212.795395 204.066101,225.698837 
	C205.220749,226.784821 206.359711,228.795456 207.532471,228.815384 
	C220.908447,229.042480 234.290237,229.017242 247.667542,228.838959 
	C248.442673,228.828629 249.192459,226.917297 249.851318,225.411102 
z"/>
<path fill="#14F195" opacity="1.000000" stroke="none" 
	d="
M27.166666,268.011627 
	C27.217094,267.413300 27.267523,266.814972 27.914043,266.067810 
	C28.991545,264.908997 29.472952,263.899048 29.954361,262.889099 
	C30.082518,262.322327 30.210674,261.755524 30.924480,261.053833 
	C31.991541,259.908997 32.472950,258.899048 32.954365,257.889099 
	C33.398933,256.677185 33.843502,255.465256 34.899101,254.086105 
	C35.991550,252.908951 36.472965,251.899017 36.954376,250.889084 
	C37.082527,250.322311 37.210678,249.755539 37.924484,249.053833 
	C38.991550,247.908951 39.472961,246.899017 39.954376,245.889084 
	C40.082531,245.322311 40.210682,244.755539 40.924488,244.053833 
	C41.991550,242.908951 42.472961,241.899017 42.954376,240.889084 
	C43.082535,240.322311 43.210686,239.755539 43.924496,239.053833 
	C44.991562,237.908951 45.472977,236.899017 45.954384,235.889084 
	C46.082531,235.322311 46.210682,234.755539 46.924492,234.053833 
	C47.991562,232.908951 48.472973,231.899017 48.954384,230.889084 
	C49.082531,230.322311 49.210686,229.755539 49.924492,229.053833 
	C50.991562,227.908951 51.472973,226.899017 51.954380,225.889084 
	C52.082527,225.322311 52.210682,224.755539 52.924492,224.053833 
	C53.991558,222.908951 54.472973,221.899017 54.954384,220.889084 
	C55.082531,220.322311 55.210686,219.755539 55.921692,219.045837 
	C56.707256,218.148407 56.909969,217.393890 57.112682,216.639389 
	C57.191326,216.485779 57.269970,216.332184 57.908009,216.063309 
	C58.963058,214.928391 59.458717,213.908737 59.954376,212.889084 
	C60.082527,212.322311 60.210682,211.755539 60.924484,211.053833 
	C61.991550,209.908951 62.472961,208.899017 62.954372,207.889084 
	C63.082523,207.322311 63.210678,206.755539 63.924492,206.053833 
	C64.991562,204.908966 65.472969,203.899017 65.954376,202.889084 
	C66.082527,202.322311 66.210678,201.755524 66.924492,201.053833 
	C67.991570,199.908966 68.472977,198.899033 68.954376,197.889084 
	C69.082527,197.322311 69.210678,196.755524 69.924484,196.053833 
	C70.991554,194.908966 71.472969,193.899017 71.954376,192.889084 
	C72.082527,192.322311 72.210678,191.755524 72.921692,191.045837 
	C73.707253,190.148422 73.909966,189.393906 74.112679,188.639404 
	C74.191322,188.485794 74.269966,188.332199 74.908005,188.063324 
	C75.963058,186.928406 76.458717,185.908737 76.954376,184.889084 
	C77.082527,184.322311 77.210678,183.755524 77.924492,183.053833 
	C78.991562,181.908966 79.472969,180.899017 79.954376,179.889084 
	C80.082527,179.322311 80.210678,178.755524 80.924484,178.053833 
	C81.991554,176.908966 82.472961,175.899017 82.954376,174.889084 
	C83.082527,174.322311 83.210678,173.755524 83.924484,173.053833 
	C84.991562,171.908966 85.472969,170.899017 85.954376,169.889084 
	C86.082527,169.322311 86.210678,168.755524 86.924484,168.053833 
	C87.991554,166.908951 88.472961,165.899017 88.954376,164.889084 
	C89.082527,164.322311 89.210678,163.755524 89.921684,163.045837 
	C90.707253,162.148422 90.909966,161.393906 91.112671,160.639404 
	C91.191322,160.485794 91.269966,160.332199 91.908005,160.063324 
	C92.963058,158.928406 93.458717,157.908737 93.954376,156.889084 
	C94.082527,156.322311 94.210678,155.755524 94.924484,155.053833 
	C95.991554,153.908966 96.472961,152.899017 96.954376,151.889084 
	C97.082535,151.322311 97.210686,150.755524 97.924484,150.053833 
	C98.991547,148.908951 99.472954,147.899017 99.954376,146.889084 
	C100.082527,146.322311 100.210678,145.755524 100.924484,145.053833 
	C101.991554,143.908966 102.472961,142.899017 102.954369,141.889084 
	C103.082520,141.322311 103.210670,140.755524 103.924484,140.053833 
	C104.991562,138.908966 105.472969,137.899017 105.954376,136.889084 
	C106.082527,136.322311 106.210678,135.755524 106.924492,135.053833 
	C107.991562,133.908966 108.472977,132.899033 108.954384,131.889084 
	C109.082535,131.322311 109.210686,130.755524 109.921692,130.045837 
	C110.707260,129.148407 110.909973,128.393906 111.112686,127.639389 
	C111.191299,127.485802 111.269920,127.332207 111.907928,127.063362 
	C112.963005,125.928436 113.458694,124.908760 113.954376,123.889084 
	C114.082535,123.322304 114.210693,122.755531 114.924500,122.053818 
	C115.991562,120.908958 116.472969,119.899025 116.954376,118.889084 
	C117.082527,118.322304 117.210686,117.755531 117.924500,117.053818 
	C118.991554,115.908958 119.472969,114.899017 119.954376,113.889084 
	C120.082535,113.322311 120.210693,112.755531 120.924500,112.053818 
	C121.991554,110.908958 122.472961,109.899017 122.954376,108.889084 
	C123.082535,108.322304 123.210686,107.755531 123.924500,107.053825 
	C124.991562,105.908958 125.472977,104.899025 125.954376,103.889084 
	C126.082527,103.322311 126.210686,102.755531 126.921692,102.045830 
	C127.707268,101.148392 127.909988,100.393890 128.112701,99.639381 
	C128.191315,99.485802 128.269928,99.332214 128.907928,99.063370 
	C129.962997,97.928452 130.458679,96.908783 130.954361,95.889107 
	C131.082520,95.322327 131.210678,94.755547 131.924469,94.053833 
	C132.991531,92.908974 133.472946,91.899040 133.954346,90.889107 
	C134.082520,90.322327 134.210678,89.755547 134.924484,89.053833 
	C135.991531,87.908974 136.472946,86.899040 136.954361,85.889107 
	C137.082520,85.322327 137.210678,84.755547 137.924484,84.053833 
	C138.991531,82.908974 139.472946,81.899040 139.954361,80.889107 
	C140.082520,80.322327 140.210678,79.755547 140.924484,79.053833 
	C141.991547,77.908974 142.472946,76.899040 142.954361,75.889107 
	C143.082520,75.322327 143.210678,74.755547 143.921707,74.045837 
	C144.707275,73.148399 144.909988,72.393890 145.112701,71.639381 
	C145.191315,71.485802 145.269928,71.332214 145.907928,71.063370 
	C146.962997,69.928452 147.458679,68.908775 147.954346,67.889107 
	C148.082504,67.322327 148.210663,66.755547 148.924469,66.053833 
	C149.991547,64.908974 150.472946,63.899033 150.954361,62.889099 
	C151.082520,62.322323 151.210678,61.755547 151.924500,61.053841 
	C152.991547,59.908974 153.472961,58.899036 153.954376,57.889099 
	C154.082520,57.322323 154.210678,56.755550 154.924484,56.053837 
	C155.991531,54.908966 156.472946,53.899033 156.954361,52.889099 
	C157.082520,52.322323 157.210678,51.755547 157.924484,51.053837 
	C158.991531,49.908966 159.472946,48.899033 159.954361,47.889099 
	C160.082520,47.322323 160.210678,46.755550 160.924484,46.053841 
	C161.991547,44.908974 162.472961,43.899036 162.954346,42.889099 
	C163.082520,42.322319 163.210678,41.755539 163.921692,41.045830 
	C164.707275,40.148403 164.909988,39.393898 165.112686,38.639393 
	C165.191299,38.485798 165.269928,38.332203 165.907959,38.063347 
	C166.963028,36.928429 167.458694,35.908764 167.954361,34.889099 
	C168.731125,33.197838 169.507889,31.506573 170.618073,29.089319 
	C177.637680,40.694447 184.190033,51.437817 190.597626,62.266846 
	C191.199097,63.283348 190.984406,64.840019 190.985367,66.146011 
	C190.998749,84.454636 190.983734,102.763290 190.579788,121.541595 
	C189.751053,122.021591 189.318161,122.031921 188.885284,122.042244 
	C185.290863,116.477318 181.736191,110.886147 178.087204,105.357224 
	C175.864365,101.989220 174.147888,102.036949 172.185135,105.389420 
	C155.442688,133.986221 138.878860,162.689468 121.912743,191.152924 
	C107.187134,215.857574 91.920074,240.239166 77.131950,264.907196 
	C75.131020,268.244934 73.006195,269.140503 69.366287,269.082458 
	C55.883549,268.867310 42.395523,268.983765 28.321222,268.755676 
	C27.559687,268.344269 27.370922,268.169586 27.166666,268.011627 
z"/>
<path fill="#14F195" opacity="1.000000" stroke="none" 
	d="
M213.014069,114.389397 
	C213.674515,117.888916 213.022202,121.022118 208.223175,121.984558 
	C209.502014,119.560608 211.169540,117.122078 213.014069,114.389397 
z"/>
<path fill="#14F195" opacity="1.000000" stroke="none" 
	d="
M200.574951,135.094437 
	C202.252747,138.335297 200.083633,139.732925 197.188278,140.960724 
	C197.976944,139.077271 199.119812,137.155060 200.574951,135.094437 
z"/>
<path fill="#14F195" opacity="1.000000" stroke="none" 
	d="
M218.801193,110.655426 
	C217.767044,111.000298 216.700760,110.999886 215.234528,110.999268 
	C215.484634,110.030624 216.134659,109.062187 216.784683,108.093750 
	C217.446136,108.832550 218.107590,109.571335 218.801193,110.655426 
z"/>
<path fill="#14F195" opacity="1.000000" stroke="none" 
	d="
M207.018158,123.384750 
	C206.667923,124.352898 206.144714,125.610733 205.227661,126.934143 
	C205.504288,125.891289 206.174728,124.782867 207.018158,123.384750 
z"/>
<path fill="#14F195" opacity="1.000000" stroke="none" 
	d="
M194.586151,145.083664 
	C194.422958,145.949829 193.958679,146.943619 193.164261,147.968430 
	C193.317764,147.070053 193.801407,146.140686 194.586151,145.083664 
z"/>
<path fill="#14F195" opacity="1.000000" stroke="none" 
	d="
M65.651474,203.021698 
	C65.472969,203.899017 64.991562,204.908966 64.197617,205.938416 
	C64.372917,205.023376 64.860741,204.088852 65.651474,203.021698 
z"/>
<path fill="#14F195" opacity="1.000000" stroke="none" 
	d="
M153.651459,217.021713 
	C153.472961,217.899033 152.991547,218.908951 152.197617,219.938400 
	C152.372925,219.023392 152.860748,218.088867 153.651459,217.021713 
z"/>
<path fill="#14F195" opacity="1.000000" stroke="none" 
	d="
M106.651459,299.021729 
	C106.472954,299.899048 105.991547,300.908997 105.197617,301.938416 
	C105.372910,301.023376 105.860733,300.088867 106.651459,299.021729 
z"/>
<path fill="#14F195" opacity="1.000000" stroke="none" 
	d="
M59.648380,213.024429 
	C59.458717,213.908737 58.963058,214.928391 58.150848,215.973679 
	C58.336987,215.052795 58.839687,214.106293 59.648380,213.024429 
z"/>
<path fill="#14F195" opacity="1.000000" stroke="none" 
	d="
M158.651474,208.021713 
	C158.472977,208.899033 157.991562,209.908966 157.197632,210.938400 
	C157.372910,210.023392 157.860733,209.088852 158.651474,208.021713 
z"/>
<path fill="#14F195" opacity="1.000000" stroke="none" 
	d="
M62.651474,208.021698 
	C62.472961,208.899017 61.991550,209.908951 61.197617,210.938400 
	C61.372921,210.023376 61.860744,209.088852 62.651474,208.021698 
z"/>
<path fill="#14F195" opacity="1.000000" stroke="none" 
	d="
M149.651459,224.021713 
	C149.472961,224.899033 148.991547,225.908966 148.197617,226.938400 
	C148.372910,226.023392 148.860733,225.088852 149.651459,224.021713 
z"/>
<path fill="#14F195" opacity="1.000000" stroke="none" 
	d="
M162.651459,201.021713 
	C162.472961,201.899033 161.991547,202.908951 161.197617,203.938400 
	C161.372925,203.023392 161.860748,202.088867 162.651459,201.021713 
z"/>
<path fill="#14F195" opacity="1.000000" stroke="none" 
	d="
M68.651482,198.021698 
	C68.472977,198.899033 67.991570,199.908966 67.197632,200.938416 
	C67.372925,200.023392 67.860756,199.088852 68.651482,198.021698 
z"/>
<path fill="#14F195" opacity="1.000000" stroke="none" 
	d="
M166.651459,194.021713 
	C166.472961,194.899033 165.991547,195.908951 165.197617,196.938400 
	C165.372925,196.023392 165.860733,195.088852 166.651459,194.021713 
z"/>
<path fill="#14F195" opacity="1.000000" stroke="none" 
	d="
M71.651474,193.021698 
	C71.472969,193.899017 70.991554,194.908966 70.197624,195.938416 
	C70.372925,195.023392 70.860748,194.088852 71.651474,193.021698 
z"/>
<path fill="#14F195" opacity="1.000000" stroke="none" 
	d="
M102.651459,306.021729 
	C102.472954,306.899048 101.991547,307.908997 101.197617,308.938416 
	C101.372910,308.023376 101.860733,307.088867 102.651459,306.021729 
z"/>
<path fill="#14F195" opacity="1.000000" stroke="none" 
	d="
M162.651459,43.021717 
	C162.472961,43.899036 161.991547,44.908974 161.197617,45.938412 
	C161.372925,45.023388 161.860733,44.088860 162.651459,43.021717 
z"/>
<path fill="#14F195" opacity="1.000000" stroke="none" 
	d="
M98.651459,313.021729 
	C98.472954,313.899048 97.991539,314.908997 97.197617,315.938416 
	C97.372917,315.023376 97.860733,314.088867 98.651459,313.021729 
z"/>
<path fill="#14F195" opacity="1.000000" stroke="none" 
	d="
M167.648376,35.024441 
	C167.458694,35.908764 166.963028,36.928429 166.150772,37.973736 
	C166.336929,37.052849 166.839661,36.106316 167.648376,35.024441 
z"/>
<path fill="#14F195" opacity="1.000000" stroke="none" 
	d="
M94.651474,320.021729 
	C94.472961,320.899048 93.991554,321.908997 93.197624,322.938416 
	C93.372932,322.023407 93.860748,321.088867 94.651474,320.021729 
z"/>
<path fill="#14F195" opacity="1.000000" stroke="none" 
	d="
M170.651459,187.021713 
	C170.472946,187.899017 169.991531,188.908951 169.197601,189.938400 
	C169.372925,189.023392 169.860733,188.088852 170.651459,187.021713 
z"/>
<path fill="#14F195" opacity="1.000000" stroke="none" 
	d="
M39.651474,246.021698 
	C39.472961,246.899017 38.991550,247.908951 38.197617,248.938400 
	C38.372913,248.023376 38.860741,247.088837 39.651474,246.021698 
z"/>
<path fill="#14F195" opacity="1.000000" stroke="none" 
	d="
M120.648376,273.024414 
	C120.458717,273.908752 119.963066,274.928406 119.150864,275.973694 
	C119.337006,275.052795 119.839699,274.106262 120.648376,273.024414 
z"/>
<path fill="#14F195" opacity="1.000000" stroke="none" 
	d="
M125.648376,265.024414 
	C125.458725,265.908752 124.963074,266.928406 124.150864,267.973694 
	C124.336998,267.052795 124.839691,266.106262 125.648376,265.024414 
z"/>
<path fill="#14F195" opacity="1.000000" stroke="none" 
	d="
M29.651455,263.021729 
	C29.472952,263.899048 28.991545,264.908997 28.197613,265.938416 
	C28.372911,265.023376 28.860731,264.088867 29.651455,263.021729 
z"/>
<path fill="#14F195" opacity="1.000000" stroke="none" 
	d="
M128.651459,260.021729 
	C128.472961,260.899048 127.991554,261.908997 127.197617,262.938416 
	C127.372910,262.023376 127.860733,261.088867 128.651459,260.021729 
z"/>
<path fill="#14F195" opacity="1.000000" stroke="none" 
	d="
M32.651459,258.021729 
	C32.472950,258.899048 31.991541,259.908997 31.197613,260.938416 
	C31.372915,260.023376 31.860737,259.088867 32.651459,258.021729 
z"/>
<path fill="#14F195" opacity="1.000000" stroke="none" 
	d="
M131.651459,255.021713 
	C131.472961,255.899033 130.991547,256.908966 130.197617,257.938416 
	C130.372925,257.023376 130.860733,256.088867 131.651459,255.021713 
z"/>
<path fill="#14F195" opacity="1.000000" stroke="none" 
	d="
M114.651459,285.021729 
	C114.472961,285.899048 113.991554,286.908997 113.197617,287.938416 
	C113.372910,287.023376 113.860725,286.088867 114.651459,285.021729 
z"/>
<path fill="#14F195" opacity="1.000000" stroke="none" 
	d="
M36.651474,251.021698 
	C36.472965,251.899017 35.991550,252.908951 35.197617,253.938400 
	C35.372917,253.023376 35.860744,252.088852 36.651474,251.021698 
z"/>
<path fill="#14F195" opacity="1.000000" stroke="none" 
	d="
M136.648376,247.024445 
	C136.458725,247.908752 135.963074,248.928406 135.150848,249.973694 
	C135.336975,249.052795 135.839676,248.106293 136.648376,247.024445 
z"/>
<path fill="#14F195" opacity="1.000000" stroke="none" 
	d="
M54.651474,221.021698 
	C54.472973,221.899017 53.991558,222.908951 53.197617,223.938400 
	C53.372913,223.023376 53.860741,222.088852 54.651474,221.021698 
z"/>
<path fill="#14F195" opacity="1.000000" stroke="none" 
	d="
M42.651474,241.021698 
	C42.472961,241.899017 41.991550,242.908951 41.197617,243.938400 
	C41.372925,243.023392 41.860752,242.088852 42.651474,241.021698 
z"/>
<path fill="#14F195" opacity="1.000000" stroke="none" 
	d="
M140.651474,240.021713 
	C140.472961,240.899033 139.991547,241.908951 139.197632,242.938400 
	C139.372925,242.023392 139.860748,241.088867 140.651474,240.021713 
z"/>
<path fill="#14F195" opacity="1.000000" stroke="none" 
	d="
M45.651482,236.021698 
	C45.472977,236.899017 44.991562,237.908951 44.197624,238.938400 
	C44.372921,238.023376 44.860748,237.088852 45.651482,236.021698 
z"/>
<path fill="#14F195" opacity="1.000000" stroke="none" 
	d="
M144.651474,233.021713 
	C144.472977,233.899033 143.991562,234.908966 143.197632,235.938400 
	C143.372925,235.023392 143.860748,234.088867 144.651474,233.021713 
z"/>
<path fill="#14F195" opacity="1.000000" stroke="none" 
	d="
M48.651482,231.021698 
	C48.472973,231.899017 47.991562,232.908951 47.197624,233.938400 
	C47.372921,233.023376 47.860744,232.088852 48.651482,231.021698 
z"/>
<path fill="#14F195" opacity="1.000000" stroke="none" 
	d="
M51.651474,226.021698 
	C51.472973,226.899017 50.991562,227.908951 50.197617,228.938400 
	C50.372917,228.023376 50.860744,227.088852 51.651474,226.021698 
z"/>
<path fill="#14F195" opacity="1.000000" stroke="none" 
	d="
M110.651459,292.021729 
	C110.472961,292.899048 109.991554,293.908997 109.197617,294.938416 
	C109.372910,294.023376 109.860733,293.088867 110.651459,292.021729 
z"/>
<path fill="#14F195" opacity="1.000000" stroke="none" 
	d="
M82.651474,175.021698 
	C82.472961,175.899017 81.991554,176.908966 81.197617,177.938416 
	C81.372910,177.023376 81.860741,176.088837 82.651474,175.021698 
z"/>
<path fill="#14F195" opacity="1.000000" stroke="none" 
	d="
M136.651459,86.021721 
	C136.472946,86.899040 135.991531,87.908974 135.197617,88.938416 
	C135.372925,88.023392 135.860733,87.088860 136.651459,86.021721 
z"/>
<path fill="#14F195" opacity="1.000000" stroke="none" 
	d="
M82.651459,341.021729 
	C82.472961,341.899048 81.991554,342.908997 81.197617,343.938416 
	C81.372910,343.023376 81.860725,342.088867 82.651459,341.021729 
z"/>
<path fill="#14F195" opacity="1.000000" stroke="none" 
	d="
M116.651474,119.021698 
	C116.472969,119.899025 115.991562,120.908958 115.197632,121.938400 
	C115.372925,121.023369 115.860748,120.088844 116.651474,119.021698 
z"/>
<path fill="#14F195" opacity="1.000000" stroke="none" 
	d="
M119.651474,114.021698 
	C119.472969,114.899017 118.991554,115.908958 118.197632,116.938400 
	C118.372932,116.023376 118.860756,115.088852 119.651474,114.021698 
z"/>
<path fill="#14F195" opacity="1.000000" stroke="none" 
	d="
M78.651466,348.021729 
	C78.472961,348.899048 77.991547,349.908997 77.197617,350.938416 
	C77.372925,350.023376 77.860741,349.088867 78.651466,348.021729 
z"/>
<path fill="#14F195" opacity="1.000000" stroke="none" 
	d="
M122.651474,109.021698 
	C122.472961,109.899017 121.991554,110.908958 121.197624,111.938400 
	C121.372925,111.023369 121.860748,110.088844 122.651474,109.021698 
z"/>
<path fill="#14F195" opacity="1.000000" stroke="none" 
	d="
M125.651474,104.021706 
	C125.472977,104.899025 124.991562,105.908958 124.197632,106.938400 
	C124.372932,106.023376 124.860756,105.088844 125.651474,104.021706 
z"/>
<path fill="#14F195" opacity="1.000000" stroke="none" 
	d="
M74.651466,355.021729 
	C74.472954,355.899048 73.991547,356.908997 73.197617,357.938416 
	C73.372925,357.023407 73.860748,356.088867 74.651466,355.021729 
z"/>
<path fill="#14F195" opacity="1.000000" stroke="none" 
	d="
M130.648361,96.024445 
	C130.458679,96.908783 129.962997,97.928452 129.150742,98.973763 
	C129.336899,98.052864 129.839630,97.106331 130.648361,96.024445 
z"/>
<path fill="#14F195" opacity="1.000000" stroke="none" 
	d="
M133.651459,91.021721 
	C133.472946,91.899040 132.991531,92.908974 132.197601,93.938416 
	C132.372925,93.023392 132.860748,92.088867 133.651459,91.021721 
z"/>
<path fill="#14F195" opacity="1.000000" stroke="none" 
	d="
M113.648376,124.024429 
	C113.458694,124.908760 112.963005,125.928436 112.150742,126.973755 
	C112.336899,126.052856 112.839638,125.106316 113.648376,124.024429 
z"/>
<path fill="#14F195" opacity="1.000000" stroke="none" 
	d="
M139.651459,81.021721 
	C139.472946,81.899040 138.991531,82.908974 138.197617,83.938416 
	C138.372910,83.023384 138.860733,82.088860 139.651459,81.021721 
z"/>
<path fill="#14F195" opacity="1.000000" stroke="none" 
	d="
M142.651459,76.021721 
	C142.472946,76.899040 141.991547,77.908974 141.197617,78.938416 
	C141.372925,78.023392 141.860748,77.088867 142.651459,76.021721 
z"/>
<path fill="#14F195" opacity="1.000000" stroke="none" 
	d="
M70.651459,362.021729 
	C70.472954,362.899048 69.991539,363.908997 69.197617,364.938416 
	C69.372910,364.023376 69.860733,363.088867 70.651459,362.021729 
z"/>
<path fill="#14F195" opacity="1.000000" stroke="none" 
	d="
M147.648361,68.024445 
	C147.458679,68.908775 146.962997,69.928452 146.150742,70.973763 
	C146.336899,70.052864 146.839630,69.106331 147.648361,68.024445 
z"/>
<path fill="#14F195" opacity="1.000000" stroke="none" 
	d="
M150.651459,63.021713 
	C150.472946,63.899033 149.991547,64.908974 149.197617,65.938416 
	C149.372925,65.023392 149.860748,64.088860 150.651459,63.021713 
z"/>
<path fill="#14F195" opacity="1.000000" stroke="none" 
	d="
M153.651474,58.021721 
	C153.472961,58.899036 152.991547,59.908974 152.197632,60.938416 
	C152.372925,60.023392 152.860748,59.088863 153.651474,58.021721 
z"/>
<path fill="#14F195" opacity="1.000000" stroke="none" 
	d="
M156.651459,53.021713 
	C156.472946,53.899033 155.991531,54.908966 155.197617,55.938408 
	C155.372925,55.023388 155.860733,54.088860 156.651459,53.021713 
z"/>
<path fill="#14F195" opacity="1.000000" stroke="none" 
	d="
M159.651459,48.021713 
	C159.472946,48.899033 158.991531,49.908966 158.197632,50.938408 
	C158.372925,50.023392 158.860748,49.088863 159.651459,48.021713 
z"/>
<path fill="#14F195" opacity="1.000000" stroke="none" 
	d="
M186.651459,159.021713 
	C186.472961,159.899033 185.991547,160.908966 185.197617,161.938400 
	C185.372910,161.023392 185.860733,160.088852 186.651459,159.021713 
z"/>
<path fill="#14F195" opacity="1.000000" stroke="none" 
	d="
M174.651474,180.021713 
	C174.472977,180.899033 173.991562,181.908966 173.197632,182.938400 
	C173.372910,182.023376 173.860733,181.088852 174.651474,180.021713 
z"/>
<path fill="#14F195" opacity="1.000000" stroke="none" 
	d="
M79.651474,180.021698 
	C79.472969,180.899017 78.991562,181.908966 78.197617,182.938416 
	C78.372917,182.023376 78.860741,181.088852 79.651474,180.021698 
z"/>
<path fill="#14F195" opacity="1.000000" stroke="none" 
	d="
M178.651459,173.021713 
	C178.472946,173.899017 177.991531,174.908951 177.197601,175.938400 
	C177.372925,175.023392 177.860748,174.088852 178.651459,173.021713 
z"/>
<path fill="#14F195" opacity="1.000000" stroke="none" 
	d="
M85.651474,170.021698 
	C85.472969,170.899017 84.991562,171.908966 84.197617,172.938416 
	C84.372910,172.023376 84.860733,171.088837 85.651474,170.021698 
z"/>
<path fill="#14F195" opacity="1.000000" stroke="none" 
	d="
M182.651459,166.021713 
	C182.472961,166.899033 181.991547,167.908951 181.197601,168.938400 
	C181.372910,168.023376 181.860733,167.088852 182.651459,166.021713 
z"/>
<path fill="#14F195" opacity="1.000000" stroke="none" 
	d="
M88.651459,165.021698 
	C88.472961,165.899017 87.991554,166.908951 87.197609,167.938416 
	C87.372910,167.023376 87.860733,166.088837 88.651459,165.021698 
z"/>
<path fill="#14F195" opacity="1.000000" stroke="none" 
	d="
M90.651474,327.021729 
	C90.472969,327.899048 89.991562,328.908997 89.197624,329.938416 
	C89.372917,329.023376 89.860741,328.088867 90.651474,327.021729 
z"/>
<path fill="#14F195" opacity="1.000000" stroke="none" 
	d="
M76.648376,185.024429 
	C76.458717,185.908737 75.963058,186.928406 75.150848,187.973694 
	C75.336983,187.052795 75.839676,186.106277 76.648376,185.024429 
z"/>
<path fill="#14F195" opacity="1.000000" stroke="none" 
	d="
M93.648376,157.024429 
	C93.458717,157.908737 92.963058,158.928406 92.150848,159.973694 
	C92.336983,159.052795 92.839684,158.106293 93.648376,157.024429 
z"/>
<path fill="#14F195" opacity="1.000000" stroke="none" 
	d="
M190.651459,152.021713 
	C190.472961,152.899033 189.991547,153.908951 189.197617,154.938400 
	C189.372925,154.023392 189.860748,153.088867 190.651459,152.021713 
z"/>
<path fill="#14F195" opacity="1.000000" stroke="none" 
	d="
M96.651474,152.021698 
	C96.472961,152.899017 95.991554,153.908966 95.197624,154.938416 
	C95.372925,154.023392 95.860748,153.088852 96.651474,152.021698 
z"/>
<path fill="#14F195" opacity="1.000000" stroke="none" 
	d="
M99.651474,147.021698 
	C99.472954,147.899017 98.991547,148.908951 98.197617,149.938416 
	C98.372925,149.023376 98.860748,148.088852 99.651474,147.021698 
z"/>
<path fill="#14F195" opacity="1.000000" stroke="none" 
	d="
M102.651474,142.021698 
	C102.472961,142.899017 101.991554,143.908966 101.197617,144.938416 
	C101.372917,144.023376 101.860748,143.088852 102.651474,142.021698 
z"/>
<path fill="#14F195" opacity="1.000000" stroke="none" 
	d="
M105.651474,137.021698 
	C105.472969,137.899017 104.991562,138.908966 104.197617,139.938416 
	C104.372917,139.023376 104.860741,138.088852 105.651474,137.021698 
z"/>
<path fill="#14F195" opacity="1.000000" stroke="none" 
	d="
M108.651474,132.021698 
	C108.472977,132.899033 107.991562,133.908966 107.197617,134.938416 
	C107.372917,134.023376 107.860741,133.088852 108.651474,132.021698 
z"/>
<path fill="#14F195" opacity="1.000000" stroke="none" 
	d="
M86.651459,334.021729 
	C86.472969,334.899048 85.991554,335.908997 85.197617,336.938416 
	C85.372910,336.023376 85.860725,335.088867 86.651459,334.021729 
z"/>
<path fill="#14F195" opacity="1.000000" stroke="none" 
	d="
M73.873726,188.789642 
	C73.909966,189.393906 73.707253,190.148422 73.194824,190.930420 
	C73.134987,190.285248 73.384880,189.612564 73.873726,188.789642 
z"/>
<path fill="#14F195" opacity="1.000000" stroke="none" 
	d="
M122.873718,268.789642 
	C122.909973,269.393890 122.707268,270.148407 122.194824,270.930420 
	C122.134987,270.285248 122.384872,269.612549 122.873718,268.789642 
z"/>
<path fill="#14F195" opacity="1.000000" stroke="none" 
	d="
M133.873734,250.789642 
	C133.909988,251.393906 133.707275,252.148422 133.194824,252.930420 
	C133.134995,252.285248 133.384872,251.612564 133.873734,250.789642 
z"/>
<path fill="#14F195" opacity="1.000000" stroke="none" 
	d="
M56.873726,216.789642 
	C56.909969,217.393890 56.707256,218.148407 56.194817,218.930420 
	C56.134979,218.285233 56.384876,217.612564 56.873726,216.789642 
z"/>
<path fill="#14F195" opacity="1.000000" stroke="none" 
	d="
M90.873718,160.789642 
	C90.909966,161.393906 90.707253,162.148422 90.194817,162.930420 
	C90.134987,162.285248 90.384880,161.612564 90.873718,160.789642 
z"/>
<path fill="#14F195" opacity="1.000000" stroke="none" 
	d="
M110.873734,127.789642 
	C110.909973,128.393906 110.707260,129.148407 110.194824,129.930420 
	C110.134987,129.285233 110.384880,128.612564 110.873734,127.789642 
z"/>
<path fill="#14F195" opacity="1.000000" stroke="none" 
	d="
M164.873749,38.789642 
	C164.909988,39.393898 164.707275,40.148403 164.194855,40.930405 
	C164.135010,40.285236 164.384903,39.612564 164.873749,38.789642 
z"/>
<path fill="#14F195" opacity="1.000000" stroke="none" 
	d="
M127.873741,99.789627 
	C127.909988,100.393890 127.707268,101.148392 127.194824,101.930405 
	C127.134995,101.285233 127.384888,100.612556 127.873741,99.789627 
z"/>
<path fill="#14F195" opacity="1.000000" stroke="none" 
	d="
M144.873749,71.789627 
	C144.909988,72.393890 144.707275,73.148399 144.194855,73.930405 
	C144.135010,73.285233 144.384903,72.612556 144.873749,71.789627 
z"/>
<path fill="#14F195" opacity="1.000000" stroke="none" 
	d="
M118.078766,278.052490 
	C118.023979,278.517029 117.881271,279.221039 117.452614,279.962891 
	C117.441391,279.431152 117.716118,278.861542 118.078766,278.052490 
z"/>
<path fill="#14F195" opacity="1.000000" stroke="none" 
	d="
M188.941803,122.394150 
	C189.318161,122.031921 189.751053,122.021591 190.508636,122.005455 
	C190.600067,122.632332 190.366806,123.265022 190.133545,123.897705 
	C189.755142,123.513824 189.376740,123.129936 188.941803,122.394150 
z"/>
<path fill="#14F195" opacity="1.000000" stroke="none" 
	d="
M27.135548,268.267395 
	C27.370922,268.169586 27.559687,268.344269 27.856016,268.684509 
	C27.687527,268.729950 27.395979,268.626556 27.135548,268.267395 
z"/>
<path fill="#14F195" opacity="1.000000" stroke="none" 
	d="
M67.710602,366.980713 
	C67.957130,366.886047 67.984047,367.359436 67.991798,367.596375 
	C67.821060,367.580688 67.642563,367.328033 67.710602,366.980713 
z"/>
<path fill="#7334BF" opacity="1.000000" stroke="none" 
	d="
M227.833344,187.980148 
	C228.036835,188.602234 228.240326,189.224319 228.857239,190.153931 
	C229.442856,190.651031 229.630417,190.823929 229.833359,190.980148 
	C235.021423,199.935974 240.213318,208.889572 245.394730,217.849258 
	C246.607864,219.946991 247.785416,222.065277 248.996674,224.767593 
	C249.014008,225.361069 249.000214,225.834152 248.535553,225.899338 
	C235.121078,225.976273 222.170975,226.029572 209.221710,225.950150 
	C207.493179,225.939560 205.768753,225.256927 204.042435,224.885513 
	C210.646896,212.795395 217.251373,200.705276 224.158630,188.172241 
	C224.651031,187.557144 224.823929,187.369583 224.980148,187.166626 
	C225.436020,187.125504 225.891907,187.084381 226.809219,187.252350 
	C227.442856,187.651031 227.630417,187.823929 227.833344,187.980148 
z"/>
<path fill="#14F195" opacity="1.000000" stroke="none" 
	d="
M204.054260,225.292175 
	C205.768753,225.256927 207.493179,225.939560 209.221710,225.950150 
	C222.170975,226.029572 235.121078,225.976273 248.771515,225.956421 
	C249.472107,225.948318 249.954056,225.890656 249.954056,225.890656 
	C249.192459,226.917297 248.442673,228.828629 247.667542,228.838959 
	C234.290237,229.017242 220.908447,229.042480 207.532471,228.815384 
	C206.359711,228.795456 205.220749,226.784821 204.054260,225.292175 
z"/>
<path fill="#7334BF" opacity="1.000000" stroke="none" 
	d="
M249.902679,225.650879 
	C249.954056,225.890656 249.472107,225.948318 249.236160,225.891235 
	C249.000214,225.834152 249.014008,225.361069 249.028244,225.124512 
	C249.383560,224.951889 249.653183,225.126282 249.902679,225.650879 
z"/>
<path fill="#7334BF" opacity="1.000000" stroke="none" 
	d="
M229.845459,190.736420 
	C229.630417,190.823929 229.442856,190.651031 229.148346,190.314041 
	C229.399002,190.030960 229.676178,190.139648 229.845459,190.736420 
z"/>
<path fill="#7334BF" opacity="1.000000" stroke="none" 
	d="
M227.845459,187.736420 
	C227.630417,187.823929 227.442856,187.651031 227.148346,187.314041 
	C227.399002,187.030960 227.676178,187.139648 227.845459,187.736420 
z"/>
<path fill="#7334BF" opacity="1.000000" stroke="none" 
	d="
M224.736420,187.154541 
	C224.823929,187.369583 224.651031,187.557144 224.314041,187.851654 
	C224.030960,187.600998 224.139648,187.323822 224.736420,187.154541 
z"/>
</svg>